<svg id="Layer_1" data-name="Layer 1" xmlns="http://www.w3.org/2000/svg" viewBox="0 0 775.23 673.31"><defs><style>.cls-1{fill:#0071bc;}.cls-2,.cls-3{fill:#f15a24;}.cls-3{font-size:150px;font-family:Dutch801BT-ExtraBold, Dutch801 XBd BT;font-weight:800;}.cls-4{letter-spacing:-0.1em;}</style></defs><path class="cls-1" d="M308.74,358.18A30.58,30.58,0,0,0,332.79,346a8.47,8.47,0,0,0-2-11.75,8.59,8.59,0,0,0-11.89,1.83,12.8,12.8,0,0,1-20.3,0,8.53,8.53,0,0,0-13.9,9.9A30.58,30.58,0,0,0,308.74,358.18Z" transform="translate(0 0.23)"/><path class="cls-1" d="M300.21,119.24A59.74,59.74,0,1,0,359.94,179,59.8,59.8,0,0,0,300.21,119.24Zm0,102.4A42.67,42.67,0,1,1,342.88,179,42.71,42.71,0,0,1,300.21,221.64Z" transform="translate(0 0.23)"/><path class="cls-1" d="M387.16,336.1a12.8,12.8,0,0,1-20.3,0A8.53,8.53,0,0,0,353,346a29.86,29.86,0,0,0,48.1,0,8.48,8.48,0,0,0-2-11.75A8.59,8.59,0,0,0,387.16,336.1Z" transform="translate(0 0.23)"/><path class="cls-2" d="M197.9,211.9a8.53,8.53,0,1,0,16.89,2.42c8.76-61.29-8.33-104.95-9.33-107.4-.16-.31-13.33-27.68-15.79-81.24l54.22,40.66a8.53,8.53,0,0,0,7.81,1.27C252.2,67.44,302.69,51,377,51s124.8,16.46,125.31,16.63a8.53,8.53,0,0,0,7.81-1.27l54.22-40.66c-2.46,53.56-15.67,81-16.07,81.86-.72,1.83-17.81,45.49-9,106.78a8.54,8.54,0,1,0,16.9-2.42c-8.06-56.36,7.75-97.38,7.71-97.38.73-1.46,18-36.72,18-106.21a8.53,8.53,0,0,0-13.65-6.83l-64.8,48.6C489.28,46,442.5,33.91,377,33.91S264.74,46,250.66,50.08l-64.8-48.6a8.53,8.53,0,0,0-13.65,6.83c0,69.49,17.23,104.75,17.67,105.57C190,114.29,206,155.08,197.9,211.9Z" transform="translate(0 0.23)"/><path class="cls-2" d="M415.88,240.14A8.53,8.53,0,0,0,404,242.51l-27,40.55-27-40.55a8.53,8.53,0,1,0-14.2,9.47l34.13,51.2a8.53,8.53,0,0,0,14.2,0L418.24,252A8.54,8.54,0,0,0,415.88,240.14Z" transform="translate(0 0.23)"/><path d="M300.21,161.91A17.07,17.07,0,1,0,317.28,179,17.09,17.09,0,0,0,300.21,161.91Z" transform="translate(0 0.23)"/><path class="cls-1" d="M435.19,388.68a8.47,8.47,0,0,0-2-11.75,8.61,8.61,0,0,0-11.89,1.84,12.8,12.8,0,0,1-20.3,0,8.53,8.53,0,0,0-13.9,9.89,29.85,29.85,0,0,0,48.09,0Z" transform="translate(0 0.23)"/><path class="cls-1" d="M513.54,179a59.73,59.73,0,1,0-59.73,59.73A59.8,59.8,0,0,0,513.54,179Zm-59.73,42.66A42.67,42.67,0,1,1,496.48,179,42.71,42.71,0,0,1,453.81,221.64Z" transform="translate(0 0.23)"/><path class="cls-2" d="M554.54,238.88c-1.11.21-27.27,5.74-46.42,35.12-21.7,33.29-25.57,82.32-11.51,145.75a8.53,8.53,0,1,0,16.66-3.68c-12.76-57.62-9.71-103.36,8.83-132.26,9.56-14.89,21-22.16,28.39-25.54,17.34,65.56,6.56,141.31-27.26,187.06-10.21,13.8-26.79,29.89-48.78,31.91a33.85,33.85,0,0,0-58.55.4H338.13a33.84,33.84,0,0,0-58.54-.41c-22-2.13-38.64-18.27-48.86-32.1-33.81-45.77-44.57-121.44-27.2-186.86,7.25,3.34,18.58,10.49,28.07,25.06,18.82,28.89,22,74.78,9.08,132.73a8.53,8.53,0,0,0,16.66,3.7c14.1-63.43,10.25-112.46-11.43-145.75-19.14-29.39-45.32-34.92-46.43-35.13a8.54,8.54,0,0,0-9.83,5.85C167.47,316.85,178.71,403.42,217,455.26c16.57,22.45,36.36,35.67,57.68,38.73,0,.25-.07.47-.07.72a17.09,17.09,0,0,0,17.07,17.07h34.13a17.09,17.09,0,0,0,17.07-17.07h68.27a17.08,17.08,0,0,0,17.06,17.07h34.14a17.08,17.08,0,0,0,17.06-17.07c0-.23-.06-.44-.07-.67,21.3-3,41.05-16.17,57.61-38.57,38.31-51.81,49.58-138.47,27.42-210.73A8.51,8.51,0,0,0,554.54,238.88ZM291.68,494.71a17.07,17.07,0,1,1,34.14,0Zm136.53,0a17.07,17.07,0,0,1,34.14,0Z" transform="translate(0 0.23)"/><path class="cls-1" d="M334.34,400.84a30.55,30.55,0,0,0,24.05-12.16,8.47,8.47,0,0,0-2-11.75,8.61,8.61,0,0,0-11.89,1.84,12.8,12.8,0,0,1-20.3,0,8.53,8.53,0,0,0-13.9,9.89A30.55,30.55,0,0,0,334.34,400.84Z" transform="translate(0 0.23)"/><path d="M453.81,161.91A17.07,17.07,0,1,0,470.88,179,17.09,17.09,0,0,0,453.81,161.91Z" transform="translate(0 0.23)"/><path class="cls-1" d="M377,443.51a30.6,30.6,0,0,0,24.05-12.16,8.47,8.47,0,0,0-2-11.75,8.57,8.57,0,0,0-11.88,1.84,12.82,12.82,0,0,1-20.31,0,8.53,8.53,0,0,0-13.9,9.9A30.6,30.6,0,0,0,377,443.51Z" transform="translate(0 0.23)"/><path class="cls-1" d="M469.32,346a8.47,8.47,0,0,0-2-11.75,8.59,8.59,0,0,0-11.89,1.83,12.8,12.8,0,0,1-20.3,0,8.53,8.53,0,0,0-13.9,9.9,29.85,29.85,0,0,0,48.09,0Z" transform="translate(0 0.23)"/><text class="cls-3" transform="translate(0 637.93)"><tspan class="cls-4">T</tspan><tspan x="84.67" y="0">oDo ITEA</tspan></text></svg>